<svg width="258" height="39" viewBox="0 0 258 39" fill="none" xmlns="http://www.w3.org/2000/svg">
<path d="M19.5904 38.5501C30.4131 38.5501 39.1809 29.9191 39.1809 19.275C39.1809 8.63094 30.4131 0 19.5904 0C8.76782 0 0 8.63094 0 19.275C0 29.9191 8.76782 38.5501 19.5904 38.5501ZM26.8844 8.99502C29.1006 8.99502 30.8972 10.7619 30.8972 12.9464C30.8972 13.7067 30.6712 14.4134 30.2947 15.0131L30.3055 15.0238L28.2722 19.1572C27.9925 19.7141 27.1426 19.5427 27.1211 18.9217L27.035 16.8978C26.9812 16.8978 26.9274 16.9085 26.8737 16.9085C24.6575 16.9085 22.8609 15.1416 22.8609 12.9571C22.8609 10.7726 24.6682 8.99502 26.8844 8.99502ZM9.94045 9.27344C11.4036 8.57739 13.1679 9.17706 13.8887 10.6227L22.5812 28.2379C23.2912 29.6836 22.678 31.4183 21.2149 32.1144C20.7953 32.3071 20.365 32.4035 19.9239 32.4035C18.8266 32.4035 17.7723 31.8038 17.2667 30.7651L8.57418 13.1499C7.86415 11.7042 8.47736 9.96948 9.94045 9.27344Z" fill="#0066FF"/>
<path d="M58.3194 26.2462L50.9824 6.16803H45.0547L54.7047 31.4183H61.5468L71.1107 6.16803H65.4843L58.3194 26.2462Z" fill="#001E28"/>
<path d="M85.1177 15.8591C84.2463 15.0024 83.2135 14.3385 82.0409 13.8459C80.8682 13.3533 79.6096 13.107 78.2756 13.107C76.9416 13.107 75.6829 13.3533 74.4995 13.8459C73.3161 14.3385 72.2833 15.0131 71.4119 15.8591C70.5405 16.705 69.8412 17.7116 69.3356 18.8574C68.83 20.0032 68.5718 21.2347 68.5718 22.5518C68.5718 23.901 68.83 25.1539 69.3356 26.3104C69.8412 27.4669 70.5405 28.4628 71.4227 29.3088C72.3048 30.1547 73.3376 30.8186 74.5102 31.2898C75.6829 31.761 76.9416 31.9966 78.2756 31.9966C79.6096 31.9966 80.8575 31.761 82.0301 31.2898C83.2027 30.8186 84.2248 30.1547 85.1069 29.3088C85.9891 28.4628 86.6884 27.4669 87.194 26.3104C87.6996 25.1539 87.9578 23.901 87.9578 22.5518C87.9578 21.2347 87.6996 20.0032 87.194 18.8574C86.6776 17.7116 85.9891 16.7157 85.1177 15.8591ZM82.8477 24.6506C82.5895 25.2824 82.2345 25.8286 81.7827 26.289C81.3308 26.7495 80.8037 27.1136 80.2012 27.3598C79.5988 27.6168 78.9533 27.7453 78.2648 27.7453C77.5655 27.7453 76.92 27.6168 76.3068 27.3598C75.7044 27.1028 75.1772 26.7495 74.7254 26.289C74.2735 25.8286 73.9185 25.2824 73.6603 24.6506C73.4021 24.0188 73.2731 23.3121 73.2731 22.5518C73.2731 21.7915 73.4021 21.0955 73.6711 20.4637C73.9401 19.8319 74.2951 19.2857 74.7469 18.8253C75.1987 18.3648 75.7259 18.0007 76.3283 17.7437C76.9308 17.4867 77.5763 17.3582 78.2648 17.3582C78.9318 17.3582 79.5773 17.4867 80.169 17.7437C80.7714 18.0007 81.2986 18.3648 81.7504 18.8253C82.2022 19.2857 82.568 19.8319 82.8262 20.4637C83.0952 21.0955 83.2243 21.7915 83.2243 22.5518C83.235 23.3228 83.1059 24.0188 82.8477 24.6506Z" fill="#001E28"/>
<path d="M112.841 6.16803H108.333V31.4183H112.841V6.16803Z" fill="#001E28"/>
<path d="M92.6805 31.6111L96.8008 25.775L100.771 31.6111H106.569L99.7808 21.9307L106.01 13.4925H100.555L97.0913 18.3755L93.8531 13.4925H88.1083L94.1543 22.1984L87.1724 31.6111H92.6805Z" fill="#001E28"/>
<path d="M121.028 32.9603C120.641 33.2173 120.2 33.3458 119.683 33.3458C119.221 33.3458 118.747 33.2601 118.274 33.0995C117.801 32.9389 117.359 32.7354 116.94 32.4999L115.025 35.9801C115.746 36.4298 116.52 36.7725 117.37 37.0188C118.22 37.2651 119.135 37.3936 120.124 37.3936C120.813 37.3936 121.501 37.3079 122.179 37.1366C122.857 36.9652 123.502 36.6654 124.126 36.2264C124.75 35.7873 125.32 35.1984 125.858 34.4381C126.396 33.6885 126.88 32.7247 127.311 31.5789L133.991 13.4925H128.849L124.6 26.3104L120.296 13.4925H114.982L121.846 31.8466C121.684 32.3285 121.405 32.6926 121.028 32.9603Z" fill="#001E28"/>
<path d="M191.364 30.8722C191.106 31.3969 190.762 31.8359 190.332 32.2C189.901 32.5641 189.385 32.8318 188.793 33.0139C188.202 33.1959 187.578 33.2923 186.921 33.2923C186.007 33.2923 185.179 33.1209 184.447 32.7783C183.715 32.4356 183.091 32.018 182.597 31.5254L182.134 31.0435L178.541 33.5921L178.95 34.0526C179.38 34.5452 179.875 35.0056 180.445 35.4125C181.015 35.8302 181.639 36.1835 182.317 36.4727C182.995 36.7725 183.726 36.9974 184.501 37.158C185.275 37.3186 186.082 37.3936 186.932 37.3936C188.266 37.3936 189.514 37.1901 190.654 36.7939C191.795 36.3977 192.795 35.8194 193.624 35.0806C194.463 34.3417 195.119 33.4315 195.592 32.3714C196.066 31.3112 196.313 30.1119 196.313 28.7948V13.4604H191.773V14.7668C190.256 13.6532 188.621 13.107 186.868 13.107C185.512 13.107 184.264 13.3212 183.145 13.7495C182.026 14.1779 181.058 14.7775 180.251 15.5271C179.444 16.2874 178.821 17.1762 178.369 18.2042C177.917 19.2322 177.702 20.3459 177.702 21.5452C177.702 22.7338 177.928 23.8475 178.369 24.8862C178.821 25.9142 179.444 26.8137 180.251 27.5633C181.058 28.3236 182.016 28.9126 183.145 29.3409C184.264 29.7692 185.512 29.9834 186.868 29.9834C188.621 29.9834 190.256 29.4266 191.773 28.3236V29.0518C191.741 29.7371 191.612 30.3475 191.364 30.8722ZM190.568 24.7684C190.192 25.0147 189.815 25.2075 189.439 25.3681C189.062 25.5287 188.675 25.6465 188.277 25.7108C187.879 25.7857 187.459 25.8178 187.018 25.8178C186.362 25.8178 185.749 25.7108 185.189 25.4859C184.619 25.2717 184.135 24.9719 183.715 24.5864C183.296 24.2009 182.973 23.7511 182.736 23.2371C182.5 22.7231 182.381 22.1556 182.381 21.5559C182.381 20.9563 182.5 20.3887 182.736 19.8747C182.973 19.3607 183.307 18.9002 183.715 18.5255C184.135 18.14 184.63 17.8401 185.189 17.6152C185.759 17.3904 186.362 17.2833 187.018 17.2833C187.459 17.2833 187.879 17.3154 188.277 17.3904C188.675 17.4653 189.062 17.5724 189.439 17.733C189.815 17.8937 190.192 18.0971 190.568 18.3434C190.945 18.5897 191.332 18.8895 191.741 19.2429V23.8796C191.343 24.2223 190.945 24.5221 190.568 24.7684Z" fill="#001E28"/>
<path d="M205.501 8.75945C205.501 8.38466 205.425 8.02058 205.275 7.68862C205.124 7.34595 204.92 7.04612 204.661 6.79982C204.403 6.54282 204.102 6.35007 203.747 6.20016C203.403 6.05024 203.026 5.97528 202.65 5.97528C202.262 5.97528 201.897 6.05024 201.563 6.20016C201.219 6.35007 200.918 6.54282 200.659 6.79982C200.401 7.05682 200.197 7.34595 200.046 7.68862C199.896 8.03129 199.82 8.38466 199.82 8.75945C199.82 9.13425 199.896 9.48762 200.046 9.83029C200.197 10.1622 200.401 10.4621 200.659 10.7084C200.918 10.9654 201.219 11.1581 201.563 11.308C201.907 11.458 202.273 11.5329 202.65 11.5329C203.037 11.5329 203.403 11.458 203.747 11.308C204.091 11.1581 204.403 10.9654 204.661 10.7084C204.92 10.4514 205.124 10.1622 205.275 9.83029C205.425 9.48762 205.501 9.13425 205.501 8.75945Z" fill="#001E28"/>
<path d="M211.181 9.25201V13.5782H208.631V17.4332H211.181V25.518C211.181 26.4604 211.342 27.3063 211.675 28.0559C211.998 28.8055 212.45 29.448 213.031 29.9727C213.612 30.4974 214.29 30.9043 215.075 31.1827C215.86 31.4612 216.721 31.6004 217.646 31.6004H220.196V27.3706H218.378C217.528 27.3706 216.861 27.135 216.398 26.6531C215.936 26.1712 215.699 25.5287 215.699 24.7149V17.4225H220.185V13.5675H215.699V9.25201H211.181Z" fill="#001E28"/>
<path d="M204.941 13.5568H200.358V31.6111H204.941V13.5568Z" fill="#001E28"/>
<path d="M240.755 31.4505V13.4604H236.215V14.9917C235.44 14.3278 234.644 13.8459 233.816 13.5568C232.987 13.2677 232.073 13.1178 231.062 13.1178C229.728 13.1178 228.501 13.3534 227.383 13.8352C226.264 14.3171 225.306 14.981 224.499 15.8163C223.692 16.6622 223.069 17.6474 222.627 18.7825C222.186 19.9176 221.96 21.1383 221.96 22.4555C221.96 23.7726 222.186 24.9933 222.627 26.1284C223.069 27.2635 223.703 28.2594 224.499 29.0946C225.306 29.9406 226.264 30.6045 227.383 31.0757C228.501 31.5576 229.728 31.7931 231.062 31.7931C232.073 31.7931 232.998 31.6432 233.816 31.3541C234.644 31.065 235.44 30.5831 236.215 29.9085V31.4398H240.755V31.4505ZM235.128 26.3747C234.752 26.6745 234.354 26.9208 233.956 27.1029C233.558 27.2849 233.16 27.4134 232.772 27.4884C232.374 27.5633 232.008 27.6062 231.643 27.6062C230.943 27.6062 230.287 27.4777 229.674 27.2207C229.061 26.9637 228.523 26.5996 228.071 26.1391C227.619 25.6787 227.264 25.1325 227.006 24.5007C226.748 23.869 226.619 23.1943 226.619 22.4555C226.619 21.7166 226.748 21.0312 227.006 20.4102C227.264 19.7891 227.619 19.2429 228.071 18.7718C228.523 18.3113 229.061 17.9472 229.674 17.6902C230.287 17.4332 230.943 17.3047 231.643 17.3047C231.998 17.3047 232.374 17.3476 232.772 17.4225C233.17 17.4975 233.558 17.626 233.956 17.8187C234.354 18.0008 234.741 18.2471 235.128 18.5469C235.505 18.8467 235.871 19.2215 236.215 19.6606V25.2503C235.881 25.7001 235.516 26.0749 235.128 26.3747Z" fill="#001E28"/>
<path d="M248.985 6.16803H244.477V31.6111H248.985V6.16803Z" fill="#001E28"/>
<path d="M174.969 13.5568H170.386V31.6111H174.969V13.5568Z" fill="#001E28"/>
<path d="M175.528 8.75945C175.528 8.38466 175.453 8.02058 175.302 7.68862C175.152 7.34595 174.947 7.04612 174.689 6.79982C174.431 6.54282 174.13 6.35007 173.775 6.20016C173.431 6.05024 173.054 5.97528 172.677 5.97528C172.29 5.97528 171.924 6.05024 171.591 6.20016C171.247 6.35007 170.945 6.54282 170.687 6.79982C170.429 7.05682 170.225 7.34595 170.074 7.68862C169.923 8.03129 169.848 8.38466 169.848 8.75945C169.848 9.13425 169.923 9.48762 170.074 9.83029C170.225 10.1622 170.429 10.4621 170.687 10.7084C170.945 10.9654 171.247 11.1581 171.591 11.308C171.935 11.458 172.301 11.5329 172.677 11.5329C173.065 11.5329 173.431 11.458 173.775 11.308C174.119 11.1581 174.431 10.9654 174.689 10.7084C174.947 10.4514 175.152 10.1622 175.302 9.83029C175.453 9.48762 175.528 9.13425 175.528 8.75945Z" fill="#001E28"/>
<path d="M160.639 29.9406C161.629 29.4052 162.533 28.752 163.35 27.9809C164.168 27.2207 164.867 26.364 165.448 25.4109C166.029 24.4579 166.492 23.4299 166.814 22.3162C167.137 21.2026 167.298 20.0246 167.298 18.7718C167.298 17.5938 167.137 16.4695 166.825 15.3986C166.513 14.3278 166.061 13.3319 165.48 12.411C164.899 11.4901 164.2 10.6655 163.382 9.91595C162.565 9.16637 161.661 8.53458 160.671 8.00987C159.682 7.48516 158.617 7.07824 157.476 6.78911C156.336 6.49999 155.142 6.36078 153.915 6.36078H143.803V31.6111H153.915C155.142 31.6111 156.314 31.4719 157.455 31.1828C158.574 30.8936 159.639 30.476 160.639 29.9406ZM153.055 27.1778H149.01V10.794H153.055C154.313 10.794 155.486 10.9975 156.573 11.4151C157.659 11.822 158.606 12.3896 159.402 13.107C160.198 13.8245 160.822 14.6705 161.274 15.6449C161.726 16.6194 161.952 17.6688 161.952 18.7825C161.952 19.9818 161.726 21.0955 161.274 22.1235C160.822 23.1515 160.198 24.0403 159.402 24.7792C158.606 25.5287 157.659 26.107 156.573 26.5353C155.508 26.9637 154.324 27.1778 153.055 27.1778Z" fill="#001E28"/>
</svg>
